# Blender v2.91.0 OBJ File: ''
# www.blender.org
mtllib Diamond.mtl
o Cube
v 0.563413 2.974714 -0.563413
v 0.000000 0.014238 0.000000
v 0.563413 2.974714 0.563413
v 0.000000 4.283016 0.000000
v -0.563413 2.974714 -0.563413
v -0.563413 2.974714 0.563413
vt 0.500957 0.285690
vt 0.751435 0.238862
vt 0.577162 0.000000
vt 0.250478 0.932160
vt 0.250478 0.238862
vt 0.000000 0.285690
vt 0.751435 0.932160
vt 0.250478 0.285690
vt 0.500957 0.238862
vt 0.326683 0.000000
vt 0.500956 0.932160
vt 1.000000 0.864857
vt 1.000000 0.286169
vt 0.751435 0.342272
vt 0.804796 0.000000
vt 0.076205 0.000000
vn -0.9185 0.3955 0.0000
vn 0.0000 -0.1870 0.9824
vn -0.9824 -0.1870 0.0000
vn 0.9185 0.3955 0.0000
vn 0.9824 -0.1870 0.0000
vn 0.0000 -0.1870 -0.9824
vn 0.0000 0.3955 -0.9185
vn 0.0000 0.3955 0.9185
usemtl Material
s off
f 5/1/1 6/2/1 4/3/1
f 2/4/2 3/5/2 6/6/2
f 2/7/3 6/2/3 5/1/3
f 3/8/4 1/9/4 4/10/4
f 2/11/5 1/9/5 3/8/5
f 2/12/6 5/13/6 1/14/6
f 1/14/7 5/13/7 4/15/7
f 6/6/8 3/5/8 4/16/8
